<svg xmlns="http://www.w3.org/2000/svg" xmlns:xlink="http://www.w3.org/1999/xlink" xmlns:lucid="lucid" width="1620.53" height="1540.77"><g transform="translate(560.5330100632509 -229.00000000000009)" lucid:page-tab-id="0_0"><path d="M-1806.4 0h3676.8v2582.4h-3676.8z" fill="#fff"/><path d="M800 1177.77h240v240H800z" stroke="#000" stroke-width="2" fill="#fff"/><path d="M-376.9 377.32l-7.15 9.42-6.16 8.87-5.3 8.34-4.54 7.84-3.86 7.38-3.27 6.95-2.76 6.56-2.3 6.2-1.92 5.9-1.56 5.58-1.26 5.34-.97 5.1-.05.28-1.97-.3.04-.32.98-5.18 1.27-5.42 1.6-5.67 1.93-5.96 2.33-6.27 2.8-6.64 3.3-7.03 3.9-7.45 4.58-7.9 5.34-8.42 6.2-8.94 7.2-9.48 6.24-7.53h2.6zm241.42-138.14l3.9.32 3.57.45 3.26.56 3 .64 2.8.72 2.58.78 2.4.84 2.25.88 2.1.94 1.97.98 1.87 1.03 1.76 1.07 1.67 1.1 1.6 1.16 1.5 1.2 1.43 1.24 1.37 1.3 1.32 1.33 1.24 1.4 1.2 1.45 1.16 1.52 1.1 1.58 1.06 1.67 1 1.75.98 1.85.92 1.95.87 2.07.8 2.2.78 2.36.7 2.52.65 2.7.56 2.94.47 3.18.37 3.48.24 3.8.06 3.18-2 .04-.06-3.13-.23-3.72-.36-3.4-.47-3.08-.54-2.85-.63-2.63-.68-2.44-.74-2.28-.8-2.12-.83-2-.9-1.87-.9-1.76-.98-1.68-1-1.6-1.07-1.52-1.1-1.45-1.15-1.4-1.2-1.33-1.26-1.28-1.3-1.24-1.38-1.2-1.45-1.13-1.52-1.1-1.6-1.07-1.7-1.02-1.78-.98-1.9-.95-2.03-.9-2.17-.85-2.33-.8-2.5-.76-2.7-.7-2.94-.63-3.18-.54-3.48-.44-3.82-.33-4.2-.17h-4.65l-5.15.22-5.73.48-6.4.82-7.17 1.2-8.03 1.72-9 2.32-10.06 3.04-11.18 3.9-12.36 4.9-13.5 6-14.45 7.2-15.2 8.36-15.58 9.45-15.57 10.35-15.12 10.98-10.87 8.62h-3.22l12.88-10.2 15.2-11.04 15.62-10.38 15.66-9.5 15.28-8.4 14.54-7.22 13.56-6.04 12.44-4.93 11.27-3.93 10.13-3.07 9.08-2.34 8.12-1.73 7.25-1.23 6.5-.83 5.8-.48 5.24-.22h4.74z"/><path d="M-80.94 298.33h-2l-.02-1 2-.05zM-414.43 462.28l-5.83 13.82-3.4-14.6z"/><path d="M-412.97 461.4l-7.56 17.93-4.42-18.95zm-7 11.48l4.08-9.72-6.48-.55z"/><use xlink:href="#a" transform="matrix(1,0,0,1,-378.3637985580449,320.5535931008224) translate(0 32)"/><path d="M-233.76 1560.57l2.87 5.23 2.42 3.98 2.1 3.17 1.9 2.6 1.73 2.2 1.6 1.86 1.5 1.6 1.43 1.4 1.36 1.23 1.3 1.07 1.25.95.73.52-1.14 1.64-.8-.53-1.3-1-1.37-1.13-1.42-1.28-1.47-1.45-1.56-1.65-1.66-1.93-1.78-2.25-1.94-2.68-2.15-3.25-2.45-4.05-2.9-5.3-2.93-5.92h2.23zm-63.88-91.04l1.33.08 1.28.15 1.26.18 1.24.24 1.22.28 1.2.34 1.2.38 1.2.45 1.2.5 1.2.57 1.23.64 1.23.7 1.26.8 1.28.9 1.32 1 1.37 1.13 1.4 1.28 1.48 1.45 1.57 1.66 1.66 1.93 1.8 2.24 1.93 2.68 2.15 3.24 2.45 4.05 2.9 5.32 2.9 5.86h-2.22l-2.43-4.93-2.87-5.24-2.4-3.97-2.1-3.17-1.9-2.6-1.74-2.2-1.6-1.86-1.5-1.6-1.43-1.4-1.35-1.2-1.3-1.1-1.25-.94-1.22-.85-1.17-.74-1.17-.67-1.14-.6-1.13-.54-1.13-.47-1.12-.43-1.12-.36-1.13-.3-1.14-.28-1.16-.22-1.18-.17-1.2-.13-1.24-.07h-.3l.04-2z"/><path d="M-297.95 1469.52l-.04 2-1-.02v-2zM-199.87 1591.73l-15 .1 2.8-8.84z"/><path d="M-196.8 1592.7l-19.44.13 3.65-11.46zm-16.7-1.9l10.55-.05-8.57-6.15z"/><use xlink:href="#b" transform="matrix(1,0,0,1,-283.39698493705623,1507.5837053930488) translate(0 32)"/><path d="M-324.1 1674.56l14.18 11.24 15.06 10.94 15.58 10.35 15.7 9.5 15.4 8.48 14.74 7.32 13.8 6.15 12.72 5.04 11.55 4.02 10.4 3.15 9.32 2.4 8.32 1.77 7.44 1.26 6.65.84 5.95.5 5.34.23h4.82l4.36-.18 3.95-.34 3.6-.46 3.3-.55 3.03-.64 2.8-.7 2.58-.8 2.4-.82 2.23-.9 2.1-.92 1.96-.97 1.84-1.02 1.73-1.05 1.64-1.1 1.56-1.12 1.48-1.16 1.4-1.22 1.36-1.26 1.28-1.3 1.22-1.37 1.18-1.42 1.12-1.48 1.07-1.55 1.04-1.63.98-1.7.94-1.8.9-1.9.84-2.03.8-2.16.74-2.3.7-2.46.6-2.66.56-2.87.46-3.12.36-3.4.23-3.75.06-3.14 2 .04-.07 3.2-.25 3.8-.36 3.5-.5 3.2-.55 2.96-.64 2.73-.7 2.55-.77 2.38-.83 2.23-.88 2.1-.94 1.98-.98 1.88-1.02 1.78-1.08 1.7-1.12 1.6-1.18 1.56-1.22 1.48-1.28 1.42-1.34 1.37-1.4 1.3-1.48 1.28-1.54 1.22-1.62 1.18-1.72 1.14-1.8 1.1-1.92 1.04-2.03 1-2.17.98-2.3.9-2.5.87-2.65.82-2.87.73-3.1.66-3.4.58-3.68.47-4.04.34-4.44.17h-4.9l-5.43-.23-6.03-.5-6.73-.86-7.5-1.28-8.4-1.8-9.4-2.4-10.5-3.18-11.62-4.05-12.8-5.07-13.87-6.2-14.8-7.35-15.48-8.5-15.77-9.57-15.65-10.4-15.13-10.98-14.25-11.3-2.54-2.2h3.06zm-93.3-135.7l.97 5.1 1.24 5.3 1.56 5.55 1.9 5.85 2.3 6.14 2.72 6.48 3.23 6.87 3.82 7.28 4.46 7.72 5.22 8.22 6.06 8.72 7.03 9.25 3.77 4.56h-2.6l-2.74-3.3-7.08-9.33-6.12-8.8-5.26-8.28-4.5-7.8-3.85-7.36-3.27-6.94-2.76-6.57-2.33-6.22-1.92-5.9-1.58-5.65-1.26-5.4-.98-5.15-.04-.3 1.98-.3z"/><path d="M-76.74 1700.6l-2-.04.02-1h2zM-413.9 1537.37l-9.23.8 3.4-14.62z"/><path d="M-412.44 1538.25l-11.98 1.02 4.42-18.94zm-9.4-1.2l6.5-.56-4.1-9.72z"/><use xlink:href="#c" transform="matrix(1,0,0,1,-382.5148135926371,1625.9066927029378) translate(0 32)"/><path d="M-259 1329.2l-1.62 3.7-1.53 3.07-1.46 2.65-1.4 2.3-1.36 2.05-1.3 1.8-1.3 1.64-1.28 1.5-1.26 1.33-1.25 1.22-1.24 1.12-1.24 1.04-1.25.96-1.26.88-1.28.8-1.3.76-1.33.7-1.35.64-1.4.58-1.44.54-1.48.48-1.55.43-1.6.38-1.7.32-1.77.26-1.88.2-2 .13-1.13.02-.04-2 1.08-.02 1.92-.12 1.8-.2 1.7-.24 1.6-.3 1.53-.37 1.48-.4 1.4-.46 1.37-.5 1.3-.56 1.3-.6 1.24-.65 1.22-.7 1.2-.78 1.2-.83 1.2-.9 1.18-.98 1.18-1.07 1.2-1.17 1.2-1.28 1.2-1.4 1.25-1.58 1.27-1.74 1.3-1.97 1.36-2.24 1.4-2.57 1.5-3.02 1.6-3.6 1.2-3.02h2.15zm44.76-105.46l-1.24.65-1.23.7-1.22.77-1.2.83-1.18.9-1.2.98-1.17 1.07-1.2 1.16-1.2 1.3-1.2 1.4-1.25 1.57-1.27 1.74-1.3 1.98-1.35 2.24-1.4 2.57-1.5 3-1.6 3.6-1.75 4.43-2 5.72-4.4 17.06h-2.07l4.57-17.63 2.02-5.83 1.78-4.5 1.64-3.68 1.53-3.1 1.45-2.64 1.4-2.3 1.35-2.05 1.32-1.8 1.28-1.64 1.27-1.48 1.26-1.34 1.26-1.2 1.25-1.13 1.25-1.04 1.26-.95 1.27-.88 1.28-.8 1.3-.76 1.3-.67z"/><path d="M-298.95 1360.68l-1.05.02v-2l1-.02zM-199.95 1219.63l-12.95 7.57-1.97-9.05z"/><path d="M-196.8 1218.94l-16.78 9.82-2.56-11.74zm-15.4 6.7l9.1-5.32-10.5-1.04z"/><use xlink:href="#d" transform="matrix(1,0,0,1,-286.907955066661,1277.4067570996954) translate(0 32)"/><path d="M800 857.77h240v230H800z" stroke="#000" stroke-width="2" fill="#fff"/><path d="M800 847.77h240v100H800z" stroke="#000" stroke-opacity="0" stroke-width="2" fill="#fff" fill-opacity="0"/><use xlink:href="#e" transform="matrix(1,0,0,1,805,852.766102631166) translate(22.107189542483646 53.12418300653595)"/><use xlink:href="#f" transform="matrix(1,0,0,1,805,852.766102631166) translate(97.4222222222222 53.12418300653595)"/><path d="M899.3 1003.42c0 26.4-22.22 47.82-49.65 47.82-27.42 0-49.65-21.4-49.65-47.82s22.23-47.83 49.65-47.83c27.43 0 49.66 21.4 49.66 47.82z" stroke="#000" stroke-width="2" fill="#fff"/><use xlink:href="#g" transform="matrix(1,0,0,1,805,960.5921895876877) translate(34.14567901234568 50.17283950617284)"/><path d="M800 1257.77h240v100H800z" stroke="#000" stroke-opacity="0" stroke-width="2" fill="#fff" fill-opacity="0"/><use xlink:href="#h" transform="matrix(1,0,0,1,805,1262.766102631166) translate(88.94117647058823 53.12418300653595)"/><path d="M800 953.42h240v100H800z" stroke="#000" stroke-opacity="0" stroke-width="2" fill="#fff" fill-opacity="0"/><use xlink:href="#i" transform="matrix(1,0,0,1,805,958.4182765442094) translate(99.34640522875817 53.12418300653595)"/><path d="M1039.3 1003.42c0 26.4-22.22 47.82-49.65 47.82-27.42 0-49.65-21.4-49.65-47.82s22.23-47.83 49.65-47.83c27.43 0 49.66 21.4 49.66 47.82z" stroke="#000" stroke-width="2" fill="#fff"/><use xlink:href="#g" transform="matrix(1,0,0,1,945,960.5921895876877) translate(34.14567901234568 50.17283950617284)"/><path d="M920 1089.77v68.5" stroke="#000" stroke-width="2" fill="none"/><path d="M921 1089.8h-2v-1.03h2z"/><path d="M920 1173.53l-4.64-14.27h9.28z" stroke="#000" stroke-width="2"/><path d="M-334.96 1138.5l-3.16 2.1-10.66 7.73-8.85 7-7.54 6.5-6.54 6.15-5.75 5.86-5.1 5.66-4.55 5.5-4.1 5.4-3.7 5.3-3.34 5.28-3.04 5.25-2.75 5.27-2.5 5.3-2.26 5.38-2.02 5.45-1.8 5.58-1.6 5.73-1.4 5.9-1.15 6.1-.94 6.36-.3 2.67-1.98-.2.3-2.73.94-6.44 1.18-6.2 1.4-5.97 1.62-5.8 1.84-5.65 2.05-5.54 2.3-5.45 2.53-5.4 2.8-5.33 3.07-5.33 3.4-5.34 3.73-5.4 4.15-5.45 4.6-5.56 5.16-5.73 5.8-5.92 6.6-6.2 7.6-6.56 8.9-7.06 10.74-7.8 4.3-2.84zm258.22-237.92l-.14 6.45-.44 7.08-.7 6.74-.96 6.44-1.18 6.2-1.4 5.97-1.62 5.8-1.84 5.65-2.06 5.54-2.3 5.45-2.52 5.37-2.8 5.34-3.07 5.34-3.4 5.34-3.74 5.4-4.15 5.45-4.6 5.56-5.16 5.7-5.8 5.93-6.62 6.2-7.6 6.56-8.92 7.05-10.72 7.78-13.43 8.9-18.2 11-32.02 17.48-53.06 27.94v-2.26l52.12-27.43 31.95-17.45 18.14-10.95 13.36-8.87 10.66-7.73 8.85-7 7.55-6.5 6.54-6.15 5.73-5.86 5.1-5.65 4.55-5.52 4.1-5.4 3.7-5.3 3.34-5.28 3.03-5.25 2.76-5.27 2.5-5.3 2.26-5.38 2.03-5.45 1.8-5.58 1.6-5.72 1.38-5.9 1.17-6.1.94-6.36.68-6.66.44-7 .14-6.4z"/><path d="M-76.74 900.6l-2-.04.02-1h2zM-414.4 1261.1l-5.42 14-3.85-14.5z"/><path d="M-412.98 1260.18l-7.02 18.15-5-18.8zm-6.66 11.7l3.8-9.85-6.5-.36z"/><use xlink:href="#c" transform="matrix(1,0,0,1,-334.96014417736717,1094.8346238365552) translate(0 32)"/><path d="M160 879.33h240v240H160z" stroke="#000" stroke-width="2" fill="#fff"/><path d="M160 949.33h240v100H160z" stroke="#000" stroke-opacity="0" stroke-width="2" fill="#fff" fill-opacity="0"/><use xlink:href="#j" transform="matrix(1,0,0,1,165,954.3275760124582) translate(88.94117647058823 53.12418300653595)"/><path d="M36.13 299.33v239.22H-200V299.33z" stroke="#000" stroke-width="2" fill="#fff"/><path d="M-200 299.33H36.13v100H-200z" stroke="#000" stroke-opacity="0" stroke-width="2" fill="#fff" fill-opacity="0"/><use xlink:href="#k" transform="matrix(1,0,0,1,-195,304.32757601245817) translate(21.218300653594763 53.12418300653595)"/><use xlink:href="#l" transform="matrix(1,0,0,1,-195,304.32757601245817) translate(96.53333333333333 53.12418300653595)"/><path d="M-45.8 409.33c0 16.57-13.42 30-30 30-16.55 0-30-13.43-30-30s13.45-30 30-30c16.58 0 30 13.43 30 30z" stroke="#000" stroke-width="2" fill="#fff"/><use xlink:href="#m" transform="matrix(1,0,0,1,-100.78626810703508,384.32757601245817) translate(-1.0123456790123484 31.22222222222222)"/><path d="M-195.8 439.33h240v60h-240z" stroke="#000" stroke-opacity="0" stroke-width="2" fill="#fff" fill-opacity="0"/><use xlink:href="#n" transform="matrix(-1.8369701987210297e-16,-1,1,-1.8369701987210297e-16,-190.78626810703508,494.3275760124582) translate(-0.4259259259259274 121.22222222222223)"/><path d="M281 859.83h-2v-459.5H140.27v-2H281zM37.13 400.33v-2h78.8v2z"/><path d="M37.15 400.33h-4.02v-1h3v-1h1.02zM280 875.1l-4.64-14.27h9.28z"/><path d="M280 878.33l-6-18.5h12zm-3.26-16.5l3.26 10.03 3.26-10.03z"/><use xlink:href="#o" transform="matrix(1,0,0,1,115.93587303594548,375.32757601245817) translate(0 32)"/><path d="M40.34 659.33v239.22H-195.8V659.33z" stroke="#000" stroke-width="2" fill="#fff"/><path d="M-195.8 659.33H40.35v100H-195.8z" stroke="#000" stroke-opacity="0" stroke-width="2" fill="#fff" fill-opacity="0"/><use xlink:href="#p" transform="matrix(1,0,0,1,-190.78626810703508,664.3275760124582) translate(21.218300653594763 53.12418300653595)"/><use xlink:href="#l" transform="matrix(1,0,0,1,-190.78626810703508,664.3275760124582) translate(96.53333333333333 53.12418300653595)"/><path d="M-47.72 758.94c0 16.57-13.43 30-30 30s-30-13.43-30-30 13.43-30 30-30 30 13.43 30 30z" stroke="#000" stroke-width="2" fill="#fff"/><use xlink:href="#q" transform="matrix(1,0,0,1,-102.72279555995738,733.9402705218737) translate(-1.8765432098765444 31.22222222222222)"/><path d="M-195.8 799.33h240v60h-240z" stroke="#000" stroke-opacity="0" stroke-width="2" fill="#fff" fill-opacity="0"/><use xlink:href="#n" transform="matrix(-1.8369701987210297e-16,-1,1,-1.8369701987210297e-16,-190.78626810703508,854.3275760124582) translate(-0.4259259259259274 121.22222222222223)"/><path d="M40.34 1099.33v239.22H-195.8v-239.22z" stroke="#000" stroke-width="2" fill="#fff"/><path d="M-195.8 1099.33H40.35v100H-195.8z" stroke="#000" stroke-opacity="0" stroke-width="2" fill="#fff" fill-opacity="0"/><use xlink:href="#r" transform="matrix(1,0,0,1,-190.78626810703508,1104.3275760124582) translate(19.189542483660126 53.12418300653595)"/><use xlink:href="#s" transform="matrix(1,0,0,1,-190.78626810703508,1104.3275760124582) translate(98.56209150326798 53.12418300653595)"/><path d="M-47.72 1198.94c0 16.57-13.43 30-30 30s-30-13.43-30-30 13.43-30 30-30 30 13.43 30 30z" stroke="#000" stroke-width="2" fill="#fff"/><use xlink:href="#t" transform="matrix(1,0,0,1,-102.72279555995738,1173.9402705218738) translate(-1.8765432098765444 31.22222222222222)"/><path d="M-195.8 1239.33h240v60h-240z" stroke="#000" stroke-opacity="0" stroke-width="2" fill="#fff" fill-opacity="0"/><use xlink:href="#n" transform="matrix(-1.8369701987210297e-16,-1,1,-1.8369701987210297e-16,-190.78626810703508,1294.3275760124582) translate(-0.4259259259259274 121.22222222222223)"/><path d="M40.34 1459.33v239.22H-195.8v-239.22z" stroke="#000" stroke-width="2" fill="#fff"/><path d="M-195.8 1459.33H40.35v100H-195.8z" stroke="#000" stroke-opacity="0" stroke-width="2" fill="#fff" fill-opacity="0"/><use xlink:href="#u" transform="matrix(1,0,0,1,-190.78626810703508,1464.3275760124582) translate(19.189542483660126 53.12418300653595)"/><use xlink:href="#s" transform="matrix(1,0,0,1,-190.78626810703508,1464.3275760124582) translate(98.56209150326798 53.12418300653595)"/><path d="M-47.72 1558.94c0 16.57-13.43 30-30 30s-30-13.43-30-30 13.43-30 30-30 30 13.43 30 30z" stroke="#000" stroke-width="2" fill="#fff"/><use xlink:href="#v" transform="matrix(1,0,0,1,-102.72279555995738,1533.9402705218738) translate(-1.8765432098765444 31.22222222222222)"/><path d="M-195.8 1599.33h240v60h-240z" stroke="#000" stroke-opacity="0" stroke-width="2" fill="#fff" fill-opacity="0"/><use xlink:href="#n" transform="matrix(-1.8369701987210297e-16,-1,1,-1.8369701987210297e-16,-190.78626810703508,1654.3275760124582) translate(-0.4259259259259274 121.22222222222223)"/><path d="M-540.53 479.33h240v240h-240z" stroke="#000" stroke-width="2" fill="#fff"/><path d="M-540.53 479.33h240v100h-240z" stroke="#000" stroke-opacity="0" stroke-width="2" fill="#fff" fill-opacity="0"/><use xlink:href="#w" transform="matrix(1,0,0,1,-535.5330100632509,484.32757601245817) translate(25.192156862745104 53.12418300653595)"/><use xlink:href="#x" transform="matrix(1,0,0,1,-535.5330100632509,484.32757601245817) translate(100.50718954248366 53.12418300653595)"/><path d="M-370.88 627.15c0 26.42-22.23 47.83-49.65 47.83-27.43 0-49.66-21.4-49.66-47.83 0-26.4 22.24-47.82 49.67-47.82 27.42 0 49.65 21.4 49.65 47.82z" stroke="#000" stroke-width="2" fill="#fff"/><use xlink:href="#y" transform="matrix(1,0,0,1,-465.18693210398214,584.3275760124582) translate(25.25679012345679 50.17283950617284)"/><path d="M-540 1279.33h240v240h-240z" stroke="#000" stroke-width="2" fill="#fff"/><path d="M-540 1279.33h240v100h-240z" stroke="#000" stroke-opacity="0" stroke-width="2" fill="#fff" fill-opacity="0"/><use xlink:href="#z" transform="matrix(1,0,0,1,-535,1284.3275760124582) translate(25.192156862745104 53.12418300653595)"/><use xlink:href="#x" transform="matrix(1,0,0,1,-535,1284.3275760124582) translate(100.50718954248366 53.12418300653595)"/><path d="M-370.35 1427.15c0 26.42-22.23 47.83-49.65 47.83-27.42 0-49.65-21.4-49.65-47.83 0-26.4 22.23-47.82 49.65-47.82 27.42 0 49.65 21.4 49.65 47.82z" stroke="#000" stroke-width="2" fill="#fff"/><use xlink:href="#A" transform="matrix(1,0,0,1,-464.65392204073123,1384.3275760124582) translate(25.25679012345679 50.17283950617284)"/><path d="M-211.02 930.05l28.36 17.1 17.6 11.65 13.13 9.53 10.5 8.3 8.7 7.5 7.36 6.92 6.36 6.5 5.54 6.15 4.9 5.9 4.32 5.7 3.87 5.57 3.45 5.44 3.1 5.37 2.77 5.3 2.5 5.3 2.2 5.27 1.98 5.3 1.74 5.36 1.52 5.43 1.3 5.53 1.06 5.66.86 5.8.63 6 .4 6.22.1 5.46-2 .04-.1-5.4-.4-6.15-.6-5.92-.86-5.73-1.07-5.57-1.28-5.45-1.5-5.35-1.7-5.28-1.95-5.23-2.2-5.2-2.44-5.2-2.74-5.24-3.05-5.3-3.4-5.36-3.83-5.48-4.28-5.65-4.83-5.84-5.5-6.1-6.3-6.42-7.3-6.86-8.64-7.44-10.44-8.25-13.06-9.48-17.53-11.62-28.3-17.05-61.96-35.46v-2.3zM-418.4 738.78l.85 5.72 1.07 5.58 1.27 5.44 1.5 5.35 1.7 5.28 1.95 5.23 2.2 5.2 2.44 5.2 2.72 5.25 3.06 5.28 3.4 5.38 3.82 5.5 4.28 5.63 4.84 5.85 5.5 6.1 6.3 6.42 7.3 6.87 8.64 7.44 10.42 8.25 11.35 8.23v2.47l-12.56-9.1-10.5-8.3-8.68-7.5-7.4-6.93-6.35-6.5-5.55-6.15-4.9-5.9-4.32-5.7-3.86-5.56-3.45-5.45-3.1-5.36-2.78-5.32-2.5-5.28-2.2-5.28-2-5.3-1.73-5.37-1.5-5.43-1.3-5.53-1.1-5.66-.85-5.8v-.15l1.98-.22z"/><path d="M-76.72 1099.33h-2l-.02-1 2-.05zM-414.83 737.5l-9.26.58 3.77-14.52z"/><path d="M-413.4 738.43l-12 .73 4.87-18.83zm-9.37-1.43l6.5-.4-3.87-9.8z"/><use xlink:href="#a" transform="matrix(1,0,0,1,-333.7675360276088,854.0670316802725) translate(0 32)"/><path d="M-267.6 525.83l-2.18 3-1.98 2.46-1.82 2.06-1.7 1.77-1.6 1.52-1.55 1.33-1.48 1.17-1.45 1.02-1.4.9-1.38.8-1.35.72-1.35.62-1.34.55-1.34.48-1.36.4-1.37.37-1.4.3-1.4.22-1.45.16-1.5.1-.53.02-.05-2h.48l1.4-.1 1.36-.16 1.32-.22 1.3-.27 1.27-.33 1.26-.4 1.25-.44 1.27-.52 1.26-.58 1.28-.67 1.3-.76 1.33-.85 1.36-.98 1.4-1.1 1.47-1.27 1.54-1.46 1.65-1.7 1.76-2 1.93-2.4 2.12-2.9.72-1.1h2.4zm49.73-83.7l-.2.12-1.35.97-1.4 1.1-1.48 1.28-1.54 1.46-1.64 1.7-1.76 2-1.92 2.4-2.12 2.92-2.43 3.67-2.9 4.84-5.27 11h-2.22l5.75-11.96 2.95-4.95 2.47-3.76 2.18-3 1.97-2.46 1.83-2.07 1.7-1.76 1.6-1.53 1.55-1.32 1.48-1.16 1.44-1.02.22-.15z"/><path d="M-298.48 545.82l-1.05.02v-2l1-.02zM-204.1 436.88l-12.26 8.63-2.73-8.85z"/><path d="M-201 435.92l-15.9 11.2-3.55-11.5zm-14.8 7.98l8.6-6.07-10.53-.16z"/><use xlink:href="#B" transform="matrix(1,0,0,1,-288.941380245349,475.6012400524993) translate(0 32)"/><path d="M-236.73 749.56l2.63 4.56 2.27 3.52 2.03 2.84 1.9 2.38 1.76 2.02 1.7 1.76 1.62 1.53 1.6 1.36 1.55 1.2 1.55 1.08 1.54.98 1.55.87.8.4-.9 1.78-.84-.42-1.63-.9-1.62-1.02-1.63-1.13-1.64-1.27-1.66-1.42-1.7-1.6-1.76-1.82-1.83-2.1-1.94-2.45-2.1-2.94-2.3-3.6-2.7-4.68-3.8-8.2h2.2zm-60.44-74.3l2.22.15 2.1.27 1.97.34 1.9.43 1.82.5 1.76.58 1.72.66 1.68.74 1.65.82 1.63.92 1.62 1 1.63 1.15 1.64 1.25 1.67 1.42 1.7 1.6 1.76 1.83 1.83 2.1 1.94 2.45.6.84h-2.47l-1.6-2.03-1.78-2.02-1.7-1.75-1.62-1.54-1.6-1.35-1.55-1.2-1.55-1.08-1.54-.96-1.55-.87-1.55-.8-1.6-.7-1.6-.6-1.7-.55-1.7-.48-1.82-.4-1.88-.32-2-.25-2.1-.15-1.3-.03.04-2z"/><path d="M-298.48 675.22l-.05 2-1-.03v-2zM-199.94 778.23l-14.94 1.4 2.03-9.03z"/><path d="M-196.8 778.94l-19.35 1.83 2.62-11.74zm-16.8-.42l10.5-1-9.08-5.36z"/><use xlink:href="#C" transform="matrix(1,0,0,1,-287.8233445316074,694.2943838219327) translate(0 32)"/><path d="M281 859.83h-2v-99.5H140.27v-2H281zm-239.66-99.5v-2h74.6v2z"/><path d="M41.37 760.33h-4.03v-1h3v-1h1.03zM280 875.1l-4.64-14.27h9.28z"/><path d="M280 878.33l-6-18.5h12zm-3.26-16.5l3.26 10.03 3.26-10.03z"/><use xlink:href="#o" transform="matrix(1,0,0,1,115.93587303594548,735.3275760124582) translate(0 32)"/><path d="M112.47 1200.33H41.34v-2h71.13zm168.53 0H136.8v-2H279v-59.5h2z"/><path d="M41.37 1200.33h-4.03v-1h3v-1h1.03zM284.64 1137.83h-9.28l4.64-14.27z"/><path d="M286 1138.83h-12l6-18.5zm-9.26-2h6.52L280 1126.8z"/><g><use xlink:href="#o" transform="matrix(1,0,0,1,112.47343787241705,1175.3275760124582) translate(0 32)"/></g><path d="M112.47 1560.33H41.34v-2h71.13zm168.53 0H136.8v-2H279v-419.5h2z"/><path d="M41.37 1560.33h-4.03v-1h3v-1h1.03zM284.64 1137.83h-9.28l4.64-14.27z"/><path d="M286 1138.83h-12l6-18.5zm-9.26-2h6.52L280 1126.8z"/><g><use xlink:href="#o" transform="matrix(1,0,0,1,112.47343787241705,1535.3275760124582) translate(0 32)"/></g><defs><path d="M23 0v-37h61v-169l-59 37v-38l62-41h46v211h57V0H23" id="D"/><path d="M14-72v-43h91v43H14" id="E"/><path d="M151-140c33 8 54 29 57 69 5 72-86 92-135 58 2 28 2 58 2 88H25v-256c0-56 30-80 87-80 46 0 76 17 78 61 1 33-16 51-39 60zm-39-85c-29 0-38 21-37 51v129c25 23 88 21 84-29-3-34-25-44-58-45v-35c45 4 61-70 11-71" id="F"/><g id="a"><use transform="matrix(0.1111111111111111,0,0,0.1111111111111111,0,0)" xlink:href="#D"/><use transform="matrix(0.1111111111111111,0,0,0.1111111111111111,22.22222222222222,0)" xlink:href="#E"/><use transform="matrix(0.1111111111111111,0,0,0.1111111111111111,35.44444444444444,0)" xlink:href="#F"/></g><path d="M24-248c93 1 206-16 204 79-1 75-69 88-152 82V0H24v-248zm52 121c47 0 100 7 100-41 0-47-54-39-100-39v80" id="G"/><path d="M182-182c0 78-84 86-111 141h115V0H12c-6-101 99-100 120-180 1-22-12-31-33-32-23 0-32 14-35 34l-49-3c5-45 32-70 84-70 51 0 83 22 83 69" id="H"/><g id="b"><use transform="matrix(0.1111111111111111,0,0,0.1111111111111111,0,0)" xlink:href="#G"/><use transform="matrix(0.1111111111111111,0,0,0.1111111111111111,26.666666666666664,0)" xlink:href="#H"/><use transform="matrix(0.1111111111111111,0,0,0.1111111111111111,48.888888888888886,0)" xlink:href="#H"/></g><g id="c"><use transform="matrix(0.1111111111111111,0,0,0.1111111111111111,0,0)" xlink:href="#D"/><use transform="matrix(0.1111111111111111,0,0,0.1111111111111111,22.22222222222222,0)" xlink:href="#E"/><use transform="matrix(0.1111111111111111,0,0,0.1111111111111111,35.44444444444444,0)" xlink:href="#F"/></g><g id="d"><use transform="matrix(0.1111111111111111,0,0,0.1111111111111111,0,0)" xlink:href="#G"/><use transform="matrix(0.1111111111111111,0,0,0.1111111111111111,26.666666666666664,0)" xlink:href="#H"/><use transform="matrix(0.1111111111111111,0,0,0.1111111111111111,48.888888888888886,0)" xlink:href="#D"/></g><path d="M240-174c0 40-23 61-54 70L253 0h-59l-57-94H76V0H24v-248c93 4 217-23 216 74zM76-134c48-2 112 12 112-38 0-48-66-32-112-35v73" id="I"/><path d="M67-125c0 53 21 87 73 88 37 1 54-22 65-47l45 17C233-25 199 4 140 4 58 4 20-42 15-125 8-235 124-281 211-232c18 10 29 29 36 50l-46 12c-8-25-30-41-62-41-52 0-71 34-72 86" id="J"/><g id="e"><use transform="matrix(0.10457516339869281,0,0,0.10457516339869281,0,0)" xlink:href="#I"/><use transform="matrix(0.10457516339869281,0,0,0.10457516339869281,27.084967320261438,0)" xlink:href="#J"/></g><path d="M230 0l2-204L168 0h-37L68-204 70 0H24v-248h70l56 185 57-185h69V0h-46" id="K"/><path d="M4 7l51-268h42L46 7H4" id="L"/><path d="M175 0L67-191c6 58 2 128 3 191H24v-248h59L193-55c-6-58-2-129-3-193h46V0h-61" id="M"/><g id="f"><use transform="matrix(0.10457516339869281,0,0,0.10457516339869281,0,0)" xlink:href="#K"/><use transform="matrix(0.10457516339869281,0,0,0.10457516339869281,31.267973856209153,0)" xlink:href="#L"/><use transform="matrix(0.10457516339869281,0,0,0.10457516339869281,41.72549019607844,0)" xlink:href="#K"/><use transform="matrix(0.10457516339869281,0,0,0.10457516339869281,72.99346405228759,0)" xlink:href="#L"/><use transform="matrix(0.10457516339869281,0,0,0.10457516339869281,83.45098039215688,0)" xlink:href="#M"/></g><path d="M107-34c59-6 34-97 39-156h49l1 190h-47c-2-10 0-24-3-32-6 33-52 48-72 20 2 27 1 57 1 85H25v-263h50c7 56-22 149 32 156" id="N"/><use transform="matrix(0.09876543209876544,0,0,0.09876543209876544,0,0)" xlink:href="#N" id="g"/><path d="M24-248c120-7 223 5 221 122C244-46 201 0 124 0H24v-248zM76-40c74 7 117-18 117-86 0-67-45-88-117-82v168" id="O"/><g id="h"><use transform="matrix(0.10457516339869281,0,0,0.10457516339869281,0,0)" xlink:href="#O"/><use transform="matrix(0.10457516339869281,0,0,0.10457516339869281,27.084967320261438,0)" xlink:href="#G"/></g><path d="M24 0v-54h51V0H24" id="P"/><g id="i"><use transform="matrix(0.10457516339869281,0,0,0.10457516339869281,0,0)" xlink:href="#P"/><use transform="matrix(0.10457516339869281,0,0,0.10457516339869281,10.457516339869281,0)" xlink:href="#P"/><use transform="matrix(0.10457516339869281,0,0,0.10457516339869281,20.915032679738562,0)" xlink:href="#P"/></g><path d="M182-130c37 4 62 22 62 59C244 23 116-4 24 0v-248c84 5 203-23 205 63 0 31-19 50-47 55zM76-148c40-3 101 13 101-30 0-44-60-28-101-31v61zm0 110c48-3 116 14 116-37 0-48-69-32-116-35v72" id="Q"/><g id="j"><use transform="matrix(0.10457516339869281,0,0,0.10457516339869281,0,0)" xlink:href="#Q"/><use transform="matrix(0.10457516339869281,0,0,0.10457516339869281,27.084967320261438,0)" xlink:href="#G"/></g><g id="k"><use transform="matrix(0.10457516339869281,0,0,0.10457516339869281,0,0)" xlink:href="#I"/><use transform="matrix(0.10457516339869281,0,0,0.10457516339869281,27.084967320261438,0)" xlink:href="#D"/><use transform="matrix(0.10457516339869281,0,0,0.10457516339869281,45.90849673202615,0)" xlink:href="#D"/></g><path d="M185-168c38 0 59 25 59 66 0 37-21 64-57 64-30 0-46-18-59-42-12 20-27 40-58 40-38 0-57-26-57-65 0-38 20-64 57-64 31 0 45 18 58 42 12-20 27-41 57-41zm26 65c0-28-27-45-48-26-6 6-11 14-17 26 6 38 65 50 65 0zm-165-2c-2 28 29 46 48 26 6-6 11-14 17-26-9-15-14-34-36-34-20 0-28 15-29 34" id="R"/><g id="l"><use transform="matrix(0.10457516339869281,0,0,0.10457516339869281,0,0)" xlink:href="#K"/><use transform="matrix(0.10457516339869281,0,0,0.10457516339869281,31.267973856209153,0)" xlink:href="#L"/><use transform="matrix(0.10457516339869281,0,0,0.10457516339869281,41.72549019607844,0)" xlink:href="#K"/><use transform="matrix(0.10457516339869281,0,0,0.10457516339869281,72.99346405228759,0)" xlink:href="#L"/><use transform="matrix(0.10457516339869281,0,0,0.10457516339869281,83.45098039215688,0)" xlink:href="#R"/></g><path d="M111-194c62 0 98 41 98 103 0 55-26 93-81 95-27 1-43-12-56-25l1 96H21v-177c1-59 33-92 90-92zm8 163c30 0 38-29 38-61 0-37-12-68-45-68-48 0-38 60-39 107 11 12 26 22 46 22" id="S"/><g id="m"><use transform="matrix(0.08641975308641976,0,0,0.08641975308641976,0,0)" xlink:href="#S"/><use transform="matrix(0.08641975308641976,0,0,0.08641975308641976,19.185185185185187,0)" xlink:href="#D"/><use transform="matrix(0.08641975308641976,0,0,0.08641975308641976,34.74074074074075,0)" xlink:href="#D"/></g><g id="n"><use transform="matrix(0.08641975308641976,0,0,0.08641975308641976,0,0)" xlink:href="#P"/><use transform="matrix(0.08641975308641976,0,0,0.08641975308641976,8.641975308641976,0)" xlink:href="#P"/><use transform="matrix(0.08641975308641976,0,0,0.08641975308641976,17.283950617283953,0)" xlink:href="#P"/><use transform="matrix(0.08641975308641976,0,0,0.08641975308641976,25.925925925925927,0)" xlink:href="#P"/><use transform="matrix(0.08641975308641976,0,0,0.08641975308641976,34.567901234567906,0)" xlink:href="#P"/><use transform="matrix(0.08641975308641976,0,0,0.08641975308641976,43.20987654320988,0)" xlink:href="#P"/></g><use transform="matrix(0.1111111111111111,0,0,0.1111111111111111,0,0)" xlink:href="#F" id="o"/><g id="p"><use transform="matrix(0.10457516339869281,0,0,0.10457516339869281,0,0)" xlink:href="#I"/><use transform="matrix(0.10457516339869281,0,0,0.10457516339869281,27.084967320261438,0)" xlink:href="#D"/><use transform="matrix(0.10457516339869281,0,0,0.10457516339869281,48.00000000000001,0)" xlink:href="#H"/></g><g id="q"><use transform="matrix(0.08641975308641976,0,0,0.08641975308641976,0,0)" xlink:href="#S"/><use transform="matrix(0.08641975308641976,0,0,0.08641975308641976,19.185185185185187,0)" xlink:href="#D"/><use transform="matrix(0.08641975308641976,0,0,0.08641975308641976,36.46913580246914,0)" xlink:href="#H"/></g><g id="r"><use transform="matrix(0.10457516339869281,0,0,0.10457516339869281,0,0)" xlink:href="#I"/><use transform="matrix(0.10457516339869281,0,0,0.10457516339869281,27.084967320261438,0)" xlink:href="#H"/><use transform="matrix(0.10457516339869281,0,0,0.10457516339869281,48.00000000000001,0)" xlink:href="#D"/></g><g id="s"><use transform="matrix(0.10457516339869281,0,0,0.10457516339869281,0,0)" xlink:href="#K"/><use transform="matrix(0.10457516339869281,0,0,0.10457516339869281,31.267973856209153,0)" xlink:href="#L"/><use transform="matrix(0.10457516339869281,0,0,0.10457516339869281,41.72549019607844,0)" xlink:href="#K"/><use transform="matrix(0.10457516339869281,0,0,0.10457516339869281,72.99346405228759,0)" xlink:href="#L"/><use transform="matrix(0.10457516339869281,0,0,0.10457516339869281,83.45098039215688,0)" xlink:href="#R"/></g><g id="t"><use transform="matrix(0.08641975308641976,0,0,0.08641975308641976,0,0)" xlink:href="#S"/><use transform="matrix(0.08641975308641976,0,0,0.08641975308641976,19.185185185185187,0)" xlink:href="#H"/><use transform="matrix(0.08641975308641976,0,0,0.08641975308641976,36.46913580246914,0)" xlink:href="#D"/></g><g id="u"><use transform="matrix(0.10457516339869281,0,0,0.10457516339869281,0,0)" xlink:href="#I"/><use transform="matrix(0.10457516339869281,0,0,0.10457516339869281,27.084967320261438,0)" xlink:href="#H"/><use transform="matrix(0.10457516339869281,0,0,0.10457516339869281,48.00000000000001,0)" xlink:href="#H"/></g><g id="v"><use transform="matrix(0.08641975308641976,0,0,0.08641975308641976,0,0)" xlink:href="#S"/><use transform="matrix(0.08641975308641976,0,0,0.08641975308641976,19.185185185185187,0)" xlink:href="#H"/><use transform="matrix(0.08641975308641976,0,0,0.08641975308641976,36.46913580246914,0)" xlink:href="#H"/></g><g id="w"><use transform="matrix(0.10457516339869281,0,0,0.10457516339869281,0,0)" xlink:href="#M"/><use transform="matrix(0.10457516339869281,0,0,0.10457516339869281,27.084967320261438,0)" xlink:href="#D"/></g><g id="x"><use transform="matrix(0.10457516339869281,0,0,0.10457516339869281,0,0)" xlink:href="#K"/><use transform="matrix(0.10457516339869281,0,0,0.10457516339869281,31.267973856209153,0)" xlink:href="#L"/><use transform="matrix(0.10457516339869281,0,0,0.10457516339869281,41.72549019607844,0)" xlink:href="#K"/><use transform="matrix(0.10457516339869281,0,0,0.10457516339869281,72.99346405228759,0)" xlink:href="#L"/><use transform="matrix(0.10457516339869281,0,0,0.10457516339869281,83.45098039215688,0)" xlink:href="#D"/></g><path d="M21-265c36-13 79 0 90 31L195 0h-52l-38-133C91-86 73-43 54 0H2l83-177c-11-25-16-68-55-54" id="T"/><g id="y"><use transform="matrix(0.09876543209876544,0,0,0.09876543209876544,0,0)" xlink:href="#T"/><use transform="matrix(0.09876543209876544,0,0,0.09876543209876544,19.75308641975309,0)" xlink:href="#D"/></g><g id="z"><use transform="matrix(0.10457516339869281,0,0,0.10457516339869281,0,0)" xlink:href="#M"/><use transform="matrix(0.10457516339869281,0,0,0.10457516339869281,27.084967320261438,0)" xlink:href="#H"/></g><g id="A"><use transform="matrix(0.09876543209876544,0,0,0.09876543209876544,0,0)" xlink:href="#T"/><use transform="matrix(0.09876543209876544,0,0,0.09876543209876544,19.75308641975309,0)" xlink:href="#H"/></g><g id="B"><use transform="matrix(0.1111111111111111,0,0,0.1111111111111111,0,0)" xlink:href="#G"/><use transform="matrix(0.1111111111111111,0,0,0.1111111111111111,26.666666666666664,0)" xlink:href="#D"/><use transform="matrix(0.1111111111111111,0,0,0.1111111111111111,46.666666666666664,0)" xlink:href="#D"/></g><g id="C"><use transform="matrix(0.1111111111111111,0,0,0.1111111111111111,0,0)" xlink:href="#G"/><use transform="matrix(0.1111111111111111,0,0,0.1111111111111111,26.666666666666664,0)" xlink:href="#D"/><use transform="matrix(0.1111111111111111,0,0,0.1111111111111111,48.888888888888886,0)" xlink:href="#H"/></g></defs></g></svg>